<!DOCTYPE svg PUBLIC "-//W3C//DTD SVG 20010904//EN" "http://www.w3.org/TR/2001/REC-SVG-20010904/DTD/svg10.dtd">
<svg version="1.0" xmlns="http://www.w3.org/2000/svg" width="517px" height="517px" viewBox="0 0 5170 5170" preserveAspectRatio="xMidYMid meet">
<g id="layer101" fill="#0617ff" stroke="none">
 <path d="M2444 2088 c-174 -178 -217 -230 -260 -317 -19 -38 -34 -72 -34 -76 0 -4 -6 -21 -14 -38 -22 -48 -46 -169 -46 -229 0 -29 5 -82 11 -118 6 -36 14 -110 18 -165 l6 -100 463 -3 c365 -2 463 0 467 10 2 7 6 53 9 102 3 48 11 118 17 154 33 187 -34 435 -159 589 -51 63 -319 333 -331 333 -4 0 -70 -64 -147 -142z m196 -267 c15 -29 12 -67 -6 -85 -16 -17 -89 -22 -111 -8 -18 11 -25 55 -14 85 10 25 15 27 65 27 44 0 57 -4 66 -19z m2 -188 c9 -19 37 -41 83 -65 83 -43 105 -73 105 -144 0 -63 -29 -111 -85 -139 -33 -17 -60 -20 -155 -20 -109 0 -118 2 -168 30 -57 31 -82 66 -82 113 0 33 14 42 61 42 22 0 41 -12 73 -45 43 -44 46 -45 106 -45 71 0 97 11 111 47 13 36 -7 63 -75 101 -30 17 -63 41 -74 52 -21 22 -36 76 -26 91 3 5 29 9 59 9 49 0 55 -3 67 -27z"/>
 </g>
<g id="layer102" fill="#284eb5" stroke="none">
 <path d="M2587 2233 c-4 -6 13 -29 37 -52 24 -24 46 -39 49 -34 4 6 -13 29 -37 52 -24 24 -46 39 -49 34z"/>
 <path d="M2436 2091 c-49 -49 -84 -91 -79 -94 5 -3 49 34 97 82 49 49 84 91 79 94 -5 3 -49 -34 -97 -82z"/>
 <path d="M2816 2002 c-3 -5 3 -17 13 -26 11 -10 22 -13 25 -8 3 5 -3 17 -13 26 -11 10 -22 13 -25 8z"/>
 <path d="M2296 1941 c-10 -11 -13 -22 -8 -25 5 -3 17 3 26 13 10 11 13 22 8 25 -5 3 -17 -3 -26 -13z"/>
 <path d="M2886 1922 c-3 -6 1 -15 8 -21 8 -7 17 -8 20 -3 3 6 -1 15 -8 21 -8 7 -17 8 -20 3z"/>
 <path d="M2246 1881 c-10 -11 -13 -22 -8 -25 5 -3 17 3 26 13 10 11 13 22 8 25 -5 3 -17 -3 -26 -13z"/>
 <path d="M2190 1791 c-11 -23 -16 -42 -10 -46 5 -3 18 12 30 34 11 23 16 42 10 46 -5 3 -18 -12 -30 -34z"/>
 <path d="M2140 1680 c-11 -21 -5 -44 9 -35 13 7 20 44 11 50 -5 3 -14 -4 -20 -15z"/>
 <path d="M3045 1620 c-4 -6 -1 -18 7 -27 7 -9 12 -18 11 -20 -2 -1 -1 -3 2 -3 3 0 8 0 12 0 4 0 2 5 -4 11 -6 6 -9 17 -7 24 7 16 -12 29 -21 15z"/>
 <path d="M2119 1606 c-1 -3 -2 -9 -3 -13 -1 -5 -5 -14 -9 -20 -5 -7 -5 -18 -2 -23 9 -14 28 -1 21 15 -2 7 0 17 6 23 6 6 6 12 -1 16 -6 4 -12 5 -12 2z"/>
 <path d="M3065 1540 c-4 -6 -3 -16 3 -22 6 -6 12 -6 17 2 4 6 3 16 -3 22 -6 6 -12 6 -17 -2z"/>
 <path d="M2095 1520 c-4 -6 -3 -16 3 -22 6 -6 12 -6 17 2 4 6 3 16 -3 22 -6 6 -12 6 -17 -2z"/>
 <path d="M3075 1468 c-9 -24 -1 -103 10 -103 14 0 19 95 6 108 -7 7 -12 5 -16 -5z"/>
 <path d="M2094 1346 c-4 -10 -2 -22 4 -28 8 -8 13 -7 18 6 4 10 2 22 -4 28 -8 8 -13 7 -18 -6z"/>
 <path d="M3065 1330 c-4 -6 -3 -16 3 -22 6 -6 12 -6 17 2 4 6 3 16 -3 22 -6 6 -12 6 -17 -2z"/>
 <path d="M2105 1280 c-4 -6 -3 -16 3 -22 6 -6 12 -6 17 2 4 6 3 16 -3 22 -6 6 -12 6 -17 -2z"/>
 <path d="M3054 1266 c-4 -10 -2 -22 4 -28 8 -8 13 -7 18 6 4 10 2 22 -4 28 -8 8 -13 7 -18 -6z"/>
 <path d="M2114 1206 c-4 -10 -2 -22 4 -28 8 -8 13 -7 18 6 4 10 2 22 -4 28 -8 8 -13 7 -18 -6z"/>
 <path d="M3044 1186 c-4 -10 -2 -22 4 -28 8 -8 13 -7 18 6 4 10 2 22 -4 28 -8 8 -13 7 -18 -6z"/>
 <path d="M2125 1050 c-3 -6 0 -12 7 -15 26 -10 923 0 923 10 0 14 -921 19 -930 5z"/>
 </g>
<g id="layer103" fill="#6e6e84" stroke="none">
 <path d="M2606 3293 c-3 -3 -6 -77 -6 -163 0 -128 3 -160 15 -170 21 -18 19 -47 -5 -60 -19 -10 -20 -21 -20 -262 l0 -251 183 -186 c203 -207 257 -275 322 -412 74 -158 89 -228 88 -409 0 -100 -6 -184 -17 -235 -9 -44 -16 -108 -16 -143 l0 -63 67 -30 c134 -60 256 -163 405 -341 50 -60 94 -106 98 -103 4 3 18 58 30 122 45 238 -1 411 -165 614 -82 102 -85 107 -30 68 81 -59 354 -211 365 -204 24 15 -19 256 -64 358 -65 147 -232 326 -396 424 -41 25 -64 41 -50 37 140 -42 246 -71 252 -67 10 5 -12 47 -69 138 -86 134 -141 175 -325 240 -357 126 -498 239 -538 432 -18 86 12 157 85 199 18 11 19 14 5 35 -93 153 -176 327 -187 396 -6 34 -15 47 -27 36z"/>
 </g>
<g id="layer104" fill="#a6a6b1" stroke="none">
 <path d="M1842 4749 c-150 -29 -283 -153 -334 -312 -30 -90 -30 -248 -1 -342 102 -327 472 -438 716 -215 97 89 150 221 149 376 0 130 -38 247 -106 329 l-25 30 42 42 41 43 -29 30 c-16 16 -34 30 -40 30 -6 0 -28 -17 -49 -39 l-38 -39 -56 29 c-83 43 -179 56 -270 38z m197 -125 c23 -9 41 -18 41 -20 0 -3 -30 -33 -66 -67 l-66 -62 37 -32 38 -32 65 59 c47 44 68 57 77 50 7 -6 25 -38 41 -73 27 -58 29 -70 29 -193 l0 -130 -38 -77 c-28 -57 -50 -86 -84 -112 -155 -118 -367 -64 -455 117 -89 181 -44 439 93 541 76 56 195 69 288 31z"/>
 <path d="M3726 4750 c-123 -22 -245 -118 -301 -236 -29 -61 -55 -180 -55 -250 0 -68 29 -193 58 -254 81 -164 264 -266 441 -244 62 7 177 40 185 52 3 4 -4 27 -15 51 -15 34 -23 42 -36 36 -10 -4 -43 -14 -73 -21 -234 -58 -409 84 -427 347 -11 154 48 304 143 368 81 53 209 63 318 25 21 -8 42 -14 47 -14 15 0 51 82 41 92 -33 33 -239 63 -326 48z"/>
 <path d="M1215 4738 c-3 -7 -4 -222 -3 -478 l3 -465 55 0 55 0 0 475 0 475 -53 3 c-36 2 -54 -1 -57 -10z"/>
 <path d="M3183 4738 c-6 -7 -29 -60 -51 -118 -22 -58 -44 -113 -47 -123 -7 -16 -24 -17 -202 -15 l-194 3 -47 125 -47 125 -49 3 c-27 2 -53 -1 -57 -5 -7 -7 282 -814 326 -911 15 -32 16 -33 71 -30 l56 3 177 462 c126 326 175 465 167 472 -21 17 -92 23 -103 9z m-156 -400 c-8 -18 -42 -108 -77 -200 -35 -93 -66 -168 -69 -168 -3 0 -37 86 -76 191 -38 106 -71 196 -73 200 -2 5 67 9 152 9 l156 0 -13 -32z"/>
 <path d="M2566 3298 c-2 -7 -7 -26 -11 -43 -15 -68 -69 -189 -134 -297 l-68 -115 50 -44 c50 -44 51 -46 55 -110 7 -115 -54 -229 -168 -313 -84 -62 -222 -131 -346 -172 -197 -65 -265 -113 -348 -243 -60 -94 -79 -132 -69 -141 4 -4 60 7 123 26 63 18 120 33 125 33 6 0 -16 -14 -48 -31 -130 -71 -316 -262 -382 -393 -19 -38 -44 -105 -55 -149 -25 -101 -37 -231 -21 -240 10 -6 248 123 361 196 41 27 43 30 -52 -94 -101 -130 -158 -283 -158 -421 0 -70 34 -265 49 -280 5 -5 52 43 105 106 138 165 260 270 374 322 31 14 64 29 72 34 22 12 24 117 6 221 -47 265 -26 438 79 655 59 124 121 201 322 406 l173 176 0 251 c0 241 -1 252 -20 262 -24 13 -26 42 -5 60 12 10 15 43 15 176 0 98 -4 165 -10 169 -6 3 -12 0 -14 -7z"/>
 </g>
<g id="layer105" fill="#fdfdff" stroke="none">
 <path d="M2504 1839 c-12 -13 -19 -35 -19 -61 0 -53 30 -78 92 -78 80 0 120 73 72 134 -17 22 -28 26 -73 26 -41 0 -57 -5 -72 -21z"/>
 <path d="M2500 1660 c-26 -48 14 -112 103 -164 68 -39 81 -54 70 -84 -10 -27 -24 -32 -90 -32 -50 0 -67 4 -83 20 -11 11 -20 24 -20 30 0 14 -55 40 -87 40 -44 0 -73 -26 -73 -64 0 -47 36 -94 99 -129 45 -26 68 -31 136 -35 190 -10 295 56 295 186 0 69 -29 108 -114 153 -51 27 -72 45 -82 68 -13 30 -15 31 -78 31 -55 0 -67 -3 -76 -20z"/>
 </g>

</svg>